<?xml version="1.0" encoding="UTF-8" standalone="no"?>
<svg
   version="1.1"
   width="550"
   height="128"
   viewBox="0 0 550 128"
   id="svg11"
   sodipodi:docname="logo.svg"
   inkscape:version="1.4 (e7c3feb100, 2024-10-09)"
   xmlns:inkscape="http://www.inkscape.org/namespaces/inkscape"
   xmlns:sodipodi="http://sodipodi.sourceforge.net/DTD/sodipodi-0.dtd"
   xmlns="http://www.w3.org/2000/svg"
   xmlns:svg="http://www.w3.org/2000/svg">
  <defs
     id="defs11" />
  <sodipodi:namedview
     id="namedview11"
     pagecolor="#ffffff"
     bordercolor="#000000"
     borderopacity="0.25"
     inkscape:showpageshadow="2"
     inkscape:pageopacity="0.0"
     inkscape:pagecheckerboard="0"
     inkscape:deskcolor="#d1d1d1"
     inkscape:zoom="1.4142136"
     inkscape:cx="277.18586"
     inkscape:cy="54.093669"
     inkscape:window-width="1920"
     inkscape:window-height="1015"
     inkscape:window-x="0"
     inkscape:window-y="0"
     inkscape:window-maximized="1"
     inkscape:current-layer="svg10" />
  <svg
     xml:space="preserve"
     width="2000"
     height="128"
     data-version="2"
     data-id="lg_5tXsrqqy480Ffxy0ml"
     viewBox="0 0 550 128"
     x="0"
     y="0"
     version="1.1"
     id="svg10"><rect
       width="100%"
       height="100%"
       fill="transparent"
       id="rect1"
       x="-724.99609"
       y="0.0018050335" /><path
       d="m -539.71212,100.02181 h -11.67999 V 16.121805 h -33.45001 V 6.5018048 h 78.71 v 9.6200002 h -33.58 z"
       id="path1" /><rect
       width="78.709999"
       height="93.519997"
       x="-584.34607"
       y="7.0018067"
       fill="none"
       rx="0"
       ry="0"
       id="rect2" /><path
       d="m -475.84311,101.5818 q -7.02,0 -12.18001,-2.699995 -5.16,-2.69 -7.95999,-7.37 -2.79001,-4.67 -2.79001,-10.58 0,-6.3 3.7,-11.63 3.71,-5.32 11.47001,-8.54 7.76,-3.21 19.89999,-3.21 h 11.69 l -1.17,1.17 v -3.83 q 0,-8.45 -3.38,-12.96 -3.37,-4.51 -11.3,-4.51 -7.46,0 -11.49,3.86 -4.03,3.87 -4.29,10.36 l -12.27,-2.79 q 0.58,-5.65 4.32,-10.3 3.73,-4.64 10,-7.43 6.27,-2.79 14.51,-2.79 8.51,0 13.87,3.21 5.36,3.21 7.89,9.25 2.53,6.04 2.53,14.55 v 32.02 q 0,2.14 0.62,2.85 0.62,0.72 2.63,0.72 h 3.96 v 9.090005 h -6.95 q -4.41,0 -7.4,-2.760005 -2.99,-2.76 -2.99,-6.98 v -4.94 h 1.62 q -1.03,2.73 -2.98,5.56 -1.95,2.82 -4.94,5.26 -2.99,2.43 -7.11,3.929995 -4.12,1.49 -9.51,1.49 m 2.46,-9.089995 q 5.39,0 10.01,-2.67 4.61,-2.66 7.43,-8.34 2.83,-5.68 2.83,-14.77 v -0.59 h -10.98 q -8.64,0 -13.6,2.27 -4.97,2.28 -7.05,5.62 -2.08,3.35 -2.08,6.66 0,3.31 1.5,5.97 1.49,2.67 4.48,4.26 2.98,1.59 7.46,1.59"
       id="path2" /><rect
       width="63.189999"
       height="73.25"
       x="-498.26611"
       y="28.831802"
       fill="none"
       rx="0"
       ry="0"
       id="rect3" /><path
       d="m -398.28311,101.5818 q -7.60001,0 -13.80001,-2.499995 -6.19999,-2.5 -10.29,-7.6 -4.09,-5.1 -5.46,-12.95 l 11.43,-2.21 q 0.72001,8.24 5.62001,12.27 4.89999,4.03 12.31,4.03 7.32999,0 11.69,-3.7 4.35,-3.71 4.35,-9.03 0,-4.55 -3.09,-7.21 -3.08,-2.66 -8.93,-3.77 l -8.5,-1.62 q -3.45,-0.65 -7.15,-1.82 -3.7,-1.17 -6.91,-3.25 -3.22,-2.07 -5.2,-5.45 -1.98,-3.38 -1.98,-8.51 0,-6.88 3.6,-11.27 3.61,-4.38 9.55,-6.52 5.94,-2.14 12.83,-2.14 7.53,0 13.11,2.33 5.59,2.34 9.1,6.69 3.5,4.35 4.67,10.52 l -12.01,2.41 q -0.46,-3.97 -2.11,-6.89 -1.66,-2.92 -4.81,-4.51 -3.15,-1.59 -8.15,-1.59 -6.04,0 -10.39,2.53 -4.35,2.53 -4.35,7.66 0,2.86 1.46,4.87 1.46,2.02 4.42,3.35 2.95,1.33 7.43,2.3 l 8.64,1.82 q 5.45,1.11 10.07,3.28 4.61,2.18 7.4,6.01 2.79,3.83 2.79,10.13 0,6.95 -3.47,11.98 -3.48,5.03 -9.61,7.7 -6.14,2.659995 -14.26,2.659995"
       id="path3" /><rect
       width="56.889999"
       height="73.25"
       x="-427.3461"
       y="28.831802"
       fill="none"
       rx="0"
       ry="0"
       id="rect4" /><path
       d="m -344.81311,100.02181 h -10.91 V 2.6118049 h 10.91 V 61.251805 l 32.93,-31.37 h 14.87 l -28.96,26.63 29.54,43.510005 h -12.92 l -24.55,-36.240005 -10.91,10.07 z"
       id="path4" /><rect
       width="59.290001"
       height="97.410004"
       x="-355.21609"
       y="3.121804"
       fill="none"
       rx="0"
       ry="0"
       id="rect5" /><path
       d="m -269.65312,100.02181 h -10.91 V 17.161805 q 0,-7.8600001 3.71,-11.2100002 3.7,-3.3399999 12.4,-3.3399999 h 8.77 v 9.0900001 h -10.33 q -1.95,0 -2.79,0.84 -0.85,0.85 -0.85,2.8 z m 15.72,-61.040005 h -37.08 v -9.1 h 37.08 z"
       id="path5" /><rect
       width="37.080002"
       height="97.410004"
       x="-290.51611"
       y="3.121804"
       fill="none"
       rx="0"
       ry="0"
       id="rect6" /><path
       d="m -226.24311,125.3518 h -11.17 v -9.09 h 10.65 q 1.17,0 1.82,-0.75 0.65,-0.75 1.23,-2.37 l 5.07,-14.479995 -1.11,4.999995 -28.18001,-73.779995 h 12.21001 l 22.34,64.62 -2.41,-0.58 22.28,-64.04 h 12.08 l -33.45,87.609995 q -1.36,3.57 -4.61,5.71 -3.24,2.15 -6.75,2.15"
       id="path6" /><rect
       width="66.5"
       height="95.470001"
       x="-247.43611"
       y="30.391804"
       fill="none"
       rx="0"
       ry="0"
       id="rect7" /><path
       d="m -683.74911,23.851805 a 4.4920007,4.4920007 0 1 1 -8.984,0.005 4.4920007,4.4920007 0 0 1 8.984,-0.005 m 0,16.473 a 4.486,4.486 0 0 1 -4.492,4.489 4.49,4.49 0 1 1 0,-8.978 4.49,4.49 0 0 1 4.492,4.489"
       id="path7" /><circle
       r="4.4917402"
       id="circle7"
       cx="-688.23608"
       cy="56.801807"
       style="stroke-width:1.3211" /><path
       d="m -643.13012,27.909805 h -30.138 a 4.056,4.056 0 0 1 0,-8.111 h 30.138 a 4.053,4.053 0 0 1 4.055,4.053 4.053,4.053 0 0 1 -4.055,4.058 m 0,16.475 h -30.138 a 4.0585,4.0585 0 0 1 0,-8.117 h 30.138 a 4.056,4.056 0 0 1 4.055,4.058 4.056,4.056 0 0 1 -4.055,4.059 m 0,16.471 h -30.138 a 4.058,4.058 0 0 1 0,-8.114 h 30.138 a 4.053,4.053 0 0 1 4.055,4.058 4.054,4.054 0 0 1 -4.055,4.056"
       id="path8" /><circle
       r="4.4917402"
       id="circle8"
       cx="-688.23608"
       cy="72.241806"
       style="stroke-width:1.3211" /><path
       d="m -643.13012,76.305805 h -30.138 a 4.058,4.058 0 0 1 0,-8.113 h 30.138 a 4.053,4.053 0 0 1 4.055,4.055 4.053,4.053 0 0 1 -4.055,4.058"
       id="path9" /><path
       d="m -600.66211,21.715805 c 0,-14.6540002 -5.41,-20.0650002 -12.09,-20.0650002 h -82.23401 c -6.869,0 -12.461,5.587 -12.461,12.4620002 v 78.338 h -12.114 c 0,18.295995 6.753,21.062995 15.09,21.062995 h 72.135 c 6.873,0 12.463,-5.587 12.463,-12.462 V 21.715805 Z m -24.198,79.333995 a 7.484,7.484 0 0 1 -7.476,7.477 c -6.674,0 -10.09,-1.425 -10.09,-16.077995 h -60.034 v -78.337 a 7.48,7.48 0 0 1 7.472,-7.4770001 h 73.416 c -1.976,3.133 -3.207,7.8740001 -3.261,14.6400001 a 4.386,4.386 0 0 0 -0.03,0.44 V 101.0498 Z"
       id="path10" /></svg>
</svg>
